<?xml version="1.0" encoding="utf-8"?>
<!-- Generator: Adobe Illustrator 22.1.0, SVG Export Plug-In . SVG Version: 6.00 Build 0)  -->
<!DOCTYPE svg PUBLIC "-//W3C//DTD SVG 1.1//EN" "http://www.w3.org/Graphics/SVG/1.1/DTD/svg11.dtd">
<svg version="1.1" id="Layer_1" xmlns="http://www.w3.org/2000/svg" xmlns:xlink="http://www.w3.org/1999/xlink" x="0px" y="0px"
	 viewBox="0 0 149 56" style="enable-background:new 0 0 149 56;" xml:space="preserve">
<style type="text/css">
	.st0{fill:#FFFFFF;}
</style>
<g>
	<path class="st0" d="M90,23.7c0.4,0.1,0.7,0.2,1.1,0.2c0.6,0,1.2-0.1,1.6-0.4c0.4-0.3,0.6-0.7,0.6-1.1c0-0.4-0.2-0.8-0.5-1
		s-0.8-0.4-1.4-0.6c-0.4-0.1-0.7-0.2-0.9-0.4c-0.2-0.1-0.3-0.3-0.3-0.5c0-0.2,0.1-0.4,0.2-0.5c0.2-0.2,0.4-0.2,0.9-0.2
		c0.2,0,0.5,0,0.7,0.1s0.5,0.2,0.7,0.3c0.1,0,0.1,0,0.2-0.1l0.3-0.4c0,0,0-0.1,0-0.1s0-0.1-0.1-0.1c-0.3-0.2-0.6-0.3-0.8-0.4
		c-0.3-0.1-0.6-0.2-1-0.2c-0.4,0-0.8,0.1-1.1,0.2c-0.3,0.1-0.5,0.3-0.7,0.6c-0.2,0.2-0.2,0.5-0.2,0.8c0,0.4,0.2,0.7,0.5,1
		c0.3,0.3,0.8,0.5,1.4,0.6c0.5,0.1,0.8,0.2,1,0.4c0.2,0.1,0.3,0.3,0.3,0.6c0,0.2-0.1,0.4-0.3,0.5c-0.2,0.1-0.5,0.2-0.9,0.2
		c-0.2,0-0.5,0-0.7-0.1c-0.2-0.1-0.4-0.1-0.6-0.2c-0.2-0.1-0.2-0.1-0.3-0.2c0,0-0.1,0-0.1,0c0,0-0.1,0-0.1,0.1l-0.3,0.4
		c0,0,0,0,0,0.1s0,0.1,0.1,0.1C89.4,23.4,89.7,23.6,90,23.7z"/>
	<path class="st0" d="M97.1,23.9c0.5,0,1-0.1,1.4-0.4s0.8-0.6,1-1c0.3-0.4,0.4-0.9,0.4-1.4c0-0.5-0.1-1-0.4-1.4
		c-0.3-0.4-0.6-0.8-1-1c-0.4-0.2-0.9-0.4-1.4-0.4c-0.5,0-1,0.1-1.4,0.4c-0.4,0.2-0.8,0.6-1,1c-0.3,0.4-0.4,0.9-0.4,1.4
		c0,0.5,0.1,1,0.4,1.4c0.3,0.4,0.6,0.8,1,1S96.5,23.9,97.1,23.9z M95.3,22.1c-0.2-0.3-0.3-0.6-0.3-1c0-0.4,0.1-0.7,0.3-1
		c0.2-0.3,0.4-0.6,0.7-0.7c0.3-0.2,0.7-0.3,1-0.3c0.4,0,0.7,0.1,1,0.3c0.3,0.2,0.5,0.4,0.7,0.7c0.2,0.3,0.3,0.6,0.3,1
		c0,0.4-0.1,0.7-0.3,1c-0.2,0.3-0.4,0.6-0.7,0.7c-0.3,0.2-0.6,0.3-1,0.3c-0.4,0-0.7-0.1-1-0.3C95.7,22.7,95.5,22.4,95.3,22.1z"/>
	<path class="st0" d="M101.7,23.5c0,0.1,0,0.2,0.1,0.2c0,0.1,0.1,0.1,0.2,0.1h0.4c0.1,0,0.1-0.1,0.1-0.2v-4.5h1.6
		c0.1,0,0.1,0,0.1-0.1v-0.6c0-0.1,0-0.1-0.1-0.1h-1.6v-1.2c0-0.5,0.2-0.9,0.5-1.1c0.3-0.2,0.6-0.3,1-0.3c0.3,0,0.7,0.1,1,0.3
		c0.1,0,0.2,0,0.2-0.1l0.2-0.4c0,0,0-0.1,0-0.1c0,0,0-0.1-0.1-0.1c-0.4-0.3-0.9-0.4-1.4-0.4c-0.7,0-1.2,0.2-1.6,0.6
		c-0.4,0.4-0.6,0.9-0.6,1.7v1.2h-0.8c-0.2,0-0.2,0.1-0.2,0.2v0.4c0,0.1,0,0.1,0.1,0.1h0.9V23.5z"/>
	<path class="st0" d="M108.7,23.6C108.7,23.6,108.7,23.6,108.7,23.6l-0.1-0.5c0-0.1-0.1-0.1-0.1-0.1c0,0-0.1,0-0.1,0
		c-0.1,0-0.2,0.1-0.3,0.1c-0.1,0-0.2,0-0.4,0c-0.2,0-0.4-0.1-0.5-0.2c-0.1-0.1-0.2-0.2-0.2-0.4s0-0.4,0-0.8v-2.6c0.1,0,0.1,0,0.2,0
		h1.2c0,0,0.1,0,0.1,0c0,0,0-0.1,0-0.1v-0.5c0,0,0-0.1,0-0.1c0,0-0.1,0-0.1,0H107v-1.6c0,0,0-0.1,0-0.1c0,0,0,0-0.1,0h-0.1
		c0,0-0.1,0-0.1,0.1c-0.1,0.4-0.2,0.8-0.3,1s-0.2,0.4-0.4,0.6c-0.1,0.1-0.3,0.3-0.6,0.4c-0.1,0-0.1,0.1-0.1,0.2v0.2
		c0,0.1,0,0.1,0.1,0.1h0.7v2.7c0,0.5,0,0.9,0.1,1.2c0.1,0.3,0.2,0.5,0.4,0.7c0.2,0.1,0.5,0.2,0.9,0.2c0.2,0,0.4,0,0.6-0.1
		c0.2,0,0.3-0.1,0.4-0.1C108.7,23.7,108.7,23.6,108.7,23.6z"/>
	<path class="st0" d="M111.5,23.8c0,0.1,0.1,0.1,0.1,0.1h0.1c0.1,0,0.1,0,0.1-0.1l1.7-3.9l1.7,3.9c0,0.1,0.1,0.1,0.2,0.1h0.1
		c0.1,0,0.1,0,0.1-0.1l2-5.2c0-0.1,0-0.1-0.1-0.1h-0.7c-0.1,0-0.1,0-0.1,0.1l-1.4,4l-1.6-4c0-0.1-0.1-0.1-0.2-0.1h-0.2
		c-0.1,0-0.1,0-0.2,0.1l-1.6,4l-1.4-4c0-0.1-0.1-0.1-0.1-0.1h-0.7c-0.1,0-0.1,0-0.1,0.1c0,0,0,0,0,0.1L111.5,23.8z"/>
	<path class="st0" d="M123,20.9c0-0.1,0-0.3,0-0.6c0-0.6-0.2-1.1-0.5-1.4c-0.3-0.4-0.8-0.5-1.5-0.5c-0.4,0-0.8,0.1-1.2,0.2
		c-0.4,0.1-0.8,0.2-1.1,0.4c0,0-0.1,0.1-0.1,0.1c0,0,0,0.1,0,0.1l0.2,0.4c0,0.1,0.1,0.1,0.1,0.1c0,0,0.1,0,0.1,0
		c0.4-0.2,0.7-0.3,1-0.4c0.3-0.1,0.6-0.1,0.9-0.1c0.4,0,0.7,0.1,0.9,0.3c0.2,0.2,0.3,0.5,0.3,0.9c-0.9,0.2-1.6,0.3-2.1,0.5
		c-0.5,0.2-0.9,0.4-1.2,0.6c-0.3,0.3-0.4,0.6-0.4,1c0,0.4,0.2,0.8,0.5,1.1c0.3,0.3,0.7,0.4,1.3,0.4c0.4,0,0.8-0.1,1.1-0.2
		c0.3-0.1,0.6-0.3,1-0.5c0,0.4,0.1,0.6,0.2,0.6h0.5c0.1,0,0.1-0.1,0.1-0.2c-0.1-0.7-0.1-1.4-0.1-2.1L123,20.9z M122.2,22.6
		c-0.2,0.2-0.5,0.3-0.9,0.4s-0.7,0.2-1,0.2c-0.3,0-0.6-0.1-0.8-0.2s-0.3-0.3-0.3-0.6c0-0.2,0.1-0.5,0.3-0.6c0.2-0.2,0.5-0.3,0.9-0.4
		c0.3-0.1,0.8-0.2,1.4-0.3l0.3-0.1c0,0.2,0,0.4,0,0.8C122.2,22.2,122.2,22.5,122.2,22.6z"/>
	<path class="st0" d="M124.5,23.9h0.6c0,0,0.1,0,0.1,0c0,0,0-0.1,0-0.1V20c0.2-0.3,0.4-0.5,0.7-0.7c0.2-0.1,0.5-0.2,0.7-0.2
		c0.2,0,0.3,0,0.5,0.1c0.1,0,0.3,0.1,0.5,0.2c0.1,0,0.1,0,0.2,0l0.3-0.5c0,0,0-0.1,0-0.1c0,0,0-0.1-0.1-0.1
		c-0.1-0.1-0.3-0.2-0.5-0.3c-0.2-0.1-0.4-0.1-0.7-0.1c-0.6,0-1.1,0.2-1.6,0.7v-0.3c0-0.1,0-0.2-0.1-0.2c-0.1-0.1-0.1-0.1-0.2-0.1
		h-0.4c0,0-0.1,0-0.1,0c0,0,0,0.1,0,0.1v5.2C124.4,23.8,124.4,23.8,124.5,23.9C124.4,23.9,124.5,23.9,124.5,23.9z"/>
	<path class="st0" d="M132.7,18.7c-0.4-0.2-0.9-0.4-1.4-0.4c-0.5,0-1,0.1-1.4,0.4c-0.4,0.2-0.7,0.6-1,1c-0.2,0.4-0.4,0.9-0.4,1.4
		c0,0.5,0.1,1,0.4,1.4c0.2,0.4,0.6,0.8,1,1c0.4,0.2,0.9,0.4,1.4,0.4c0.5,0,0.9-0.1,1.3-0.3c0.4-0.2,0.7-0.5,1-0.8c0,0,0-0.1,0-0.1
		c0,0,0-0.1-0.1-0.1l-0.1-0.2c0,0-0.1-0.1-0.1-0.1c0,0-0.1,0-0.1,0.1c-0.2,0.2-0.5,0.4-0.8,0.5c-0.3,0.1-0.6,0.2-1,0.2
		c-0.4,0-0.7-0.1-1-0.2c-0.3-0.2-0.5-0.4-0.7-0.6c-0.2-0.3-0.3-0.5-0.3-0.8h4c0.4,0,0.5-0.2,0.5-0.5c0-0.5-0.1-0.9-0.3-1.3
		C133.4,19.3,133.1,18.9,132.7,18.7z M129.4,20.8c0-0.3,0.1-0.5,0.2-0.8c0.1-0.3,0.3-0.5,0.6-0.7s0.6-0.3,1-0.3s0.7,0.1,1,0.3
		c0.3,0.2,0.5,0.4,0.6,0.7s0.2,0.5,0.2,0.8H129.4z"/>
	<path class="st0" d="M93.2,32.7c-0.4-0.2-0.9-0.4-1.4-0.4c-0.5,0-1,0.1-1.4,0.4c-0.4,0.2-0.7,0.6-1,1c-0.2,0.4-0.4,0.9-0.4,1.4
		c0,0.5,0.1,1,0.4,1.4c0.2,0.4,0.6,0.8,1,1c0.4,0.2,0.9,0.4,1.4,0.4c0.5,0,0.9-0.1,1.3-0.3c0.4-0.2,0.7-0.5,1-0.8c0,0,0-0.1,0-0.1
		c0,0,0-0.1-0.1-0.1l-0.1-0.2c0,0-0.1-0.1-0.1-0.1c0,0-0.1,0-0.1,0.1c-0.2,0.2-0.5,0.4-0.8,0.5c-0.3,0.1-0.6,0.2-1,0.2
		c-0.4,0-0.7-0.1-1-0.2c-0.3-0.2-0.5-0.4-0.7-0.6c-0.2-0.3-0.3-0.5-0.3-0.8h4c0.4,0,0.5-0.2,0.5-0.5c0-0.5-0.1-0.9-0.3-1.3
		C93.9,33.3,93.6,32.9,93.2,32.7z M89.9,34.8c0-0.3,0.1-0.5,0.2-0.8c0.1-0.3,0.3-0.5,0.6-0.7s0.6-0.3,1-0.3s0.7,0.1,1,0.3
		c0.3,0.2,0.5,0.4,0.6,0.7s0.2,0.5,0.2,0.8H89.9z"/>
	<path class="st0" d="M100.6,34.4c0-0.4-0.1-0.8-0.3-1.1c-0.2-0.3-0.5-0.5-0.8-0.7s-0.7-0.2-1.1-0.2c-0.7,0-1.4,0.3-2,0.8v-0.5
		c0-0.1,0-0.2-0.1-0.2c-0.1-0.1-0.1-0.1-0.2-0.1h-0.4c0,0-0.1,0-0.1,0c0,0,0,0.1,0,0.1v5.2c0,0,0,0.1,0,0.1c0,0,0.1,0,0.1,0h0.6
		c0,0,0.1,0,0.1,0c0,0,0-0.1,0-0.1V34c0.6-0.6,1.3-0.9,2-0.9c0.5,0,0.8,0.1,1.1,0.4c0.3,0.3,0.4,0.6,0.4,1v3c0,0.1,0,0.2,0.1,0.2
		c0.1,0.1,0.1,0.1,0.2,0.1h0.5c0.1,0,0.1,0,0.1-0.1v0c0-0.2,0-0.5,0-0.8V34.4z"/>
	<path class="st0" d="M107.1,38.6c-0.3-0.2-0.8-0.3-1.5-0.4l-2-0.2c-0.4,0-0.7-0.1-0.9-0.2s-0.3-0.3-0.3-0.4c0-0.1,0.1-0.2,0.2-0.3
		c0.1-0.1,0.2-0.1,0.4-0.1c0.1,0,0.2,0,0.3,0.1c0.4,0.2,0.9,0.4,1.4,0.4c0.4,0,0.8-0.1,1.2-0.3c0.4-0.2,0.6-0.5,0.9-0.8
		c0.2-0.4,0.3-0.8,0.3-1.2c0-0.4-0.1-0.7-0.2-1c-0.1-0.3-0.3-0.6-0.7-0.8c0,0,0.2,0,0.4,0c0.2,0,0.4,0,0.5-0.1l0-0.4
		c0-0.1,0-0.1-0.1-0.1c-0.1,0-0.3,0-0.5,0c-0.4,0-0.7,0-1.1-0.1c-0.3,0-0.6-0.1-0.8-0.1c-0.5,0-0.9,0.1-1.2,0.3s-0.7,0.5-0.9,0.9
		s-0.3,0.8-0.3,1.2c0,0.4,0.1,0.7,0.2,1c0.2,0.3,0.3,0.5,0.5,0.7c-0.1,0-0.2,0-0.3,0c-0.3,0-0.5,0.1-0.7,0.2
		c-0.2,0.2-0.3,0.4-0.3,0.6c0,0.1,0,0.2,0,0.3c0.1,0.2,0.3,0.5,0.5,0.6c0.3,0.2,0.6,0.3,0.9,0.3c-0.4,0.1-0.7,0.3-0.9,0.5
		c-0.2,0.2-0.3,0.5-0.3,0.9c0,0.6,0.2,1,0.7,1.3c0.5,0.3,1.1,0.5,1.9,0.5c0.6,0,1.1-0.1,1.6-0.3s0.9-0.4,1.1-0.7
		c0.3-0.3,0.4-0.7,0.4-1.2C107.6,39.1,107.4,38.8,107.1,38.6z M103.1,34c0.1-0.3,0.3-0.5,0.6-0.6s0.5-0.2,0.9-0.2
		c0.3,0,0.6,0.1,0.8,0.2c0.3,0.1,0.5,0.3,0.6,0.6c0.2,0.3,0.2,0.5,0.2,0.9c0,0.5-0.2,0.9-0.5,1.2c-0.3,0.3-0.7,0.4-1.2,0.4
		c-0.3,0-0.6-0.1-0.8-0.2c-0.3-0.1-0.5-0.3-0.6-0.6s-0.2-0.5-0.2-0.8C102.9,34.5,103,34.2,103.1,34z M106.1,40.6
		c-0.4,0.2-0.9,0.4-1.6,0.4c-0.5,0-1-0.1-1.3-0.3c-0.3-0.2-0.5-0.5-0.5-0.9c0-0.2,0.1-0.4,0.2-0.6c0.1-0.2,0.3-0.3,0.4-0.4
		c0.2-0.1,0.3-0.1,0.5-0.1c0.9,0.1,1.5,0.2,1.9,0.3c0.4,0.1,0.6,0.2,0.8,0.3s0.2,0.3,0.2,0.5C106.7,40.1,106.5,40.4,106.1,40.6z"/>
	<path class="st0" d="M109.1,29.1c-0.1,0-0.3,0-0.3,0.1s-0.1,0.2-0.1,0.3c0,0.1,0,0.2,0.1,0.3s0.2,0.1,0.3,0.1c0.1,0,0.2,0,0.3-0.1
		c0.1-0.1,0.1-0.2,0.1-0.3c0-0.1,0-0.2-0.1-0.3C109.3,29.1,109.2,29.1,109.1,29.1z"/>
	<path class="st0" d="M109.4,32.4h-0.6c-0.1,0-0.1,0-0.1,0.1v5c0,0.1,0,0.2,0.1,0.2c0,0.1,0.1,0.1,0.2,0.1h0.4c0,0,0.1,0,0.1,0
		c0,0,0-0.1,0-0.1v-5.2C109.5,32.5,109.5,32.4,109.4,32.4z"/>
	<path class="st0" d="M116.1,34.4c0-0.4-0.1-0.8-0.3-1.1c-0.2-0.3-0.5-0.5-0.8-0.7s-0.7-0.2-1.1-0.2c-0.7,0-1.4,0.3-2,0.8v-0.5
		c0-0.1,0-0.2-0.1-0.2c-0.1-0.1-0.1-0.1-0.2-0.1h-0.4c0,0-0.1,0-0.1,0c0,0,0,0.1,0,0.1v5.2c0,0,0,0.1,0,0.1c0,0,0.1,0,0.1,0h0.6
		c0,0,0.1,0,0.1,0c0,0,0-0.1,0-0.1V34c0.6-0.6,1.3-0.9,2-0.9c0.5,0,0.8,0.1,1.1,0.4c0.3,0.3,0.4,0.6,0.4,1v3c0,0.1,0,0.2,0.1,0.2
		c0.1,0.1,0.1,0.1,0.2,0.1h0.5c0.1,0,0.1,0,0.1-0.1v0c0-0.2,0-0.5,0-0.8V34.4z"/>
	<path class="st0" d="M121.2,32.7c-0.4-0.2-0.9-0.4-1.4-0.4c-0.5,0-1,0.1-1.4,0.4c-0.4,0.2-0.7,0.6-1,1s-0.4,0.9-0.4,1.4
		c0,0.5,0.1,1,0.4,1.4s0.6,0.8,1,1c0.4,0.2,0.9,0.4,1.4,0.4c0.5,0,0.9-0.1,1.3-0.3c0.4-0.2,0.7-0.5,1-0.8c0,0,0-0.1,0-0.1
		c0,0,0-0.1-0.1-0.1l-0.1-0.2c0,0-0.1-0.1-0.1-0.1c0,0-0.1,0-0.1,0.1c-0.2,0.2-0.5,0.4-0.8,0.5s-0.6,0.2-1,0.2c-0.4,0-0.7-0.1-1-0.2
		c-0.3-0.2-0.5-0.4-0.7-0.6c-0.2-0.3-0.3-0.5-0.3-0.8h4c0.4,0,0.5-0.2,0.5-0.5c0-0.5-0.1-0.9-0.3-1.3S121.6,32.9,121.2,32.7z
		 M118,34.8c0-0.3,0.1-0.5,0.2-0.8c0.1-0.3,0.3-0.5,0.6-0.7s0.6-0.3,1-0.3s0.7,0.1,1,0.3c0.3,0.2,0.5,0.4,0.6,0.7s0.2,0.5,0.2,0.8
		H118z"/>
	<path class="st0" d="M127.4,32.7c-0.4-0.2-0.9-0.4-1.4-0.4c-0.5,0-1,0.1-1.4,0.4c-0.4,0.2-0.7,0.6-1,1c-0.2,0.4-0.4,0.9-0.4,1.4
		c0,0.5,0.1,1,0.4,1.4c0.2,0.4,0.6,0.8,1,1c0.4,0.2,0.9,0.4,1.4,0.4c0.5,0,0.9-0.1,1.3-0.3c0.4-0.2,0.7-0.5,1-0.8c0,0,0-0.1,0-0.1
		c0,0,0-0.1-0.1-0.1l-0.1-0.2c0,0-0.1-0.1-0.1-0.1c0,0-0.1,0-0.1,0.1c-0.2,0.2-0.5,0.4-0.8,0.5c-0.3,0.1-0.6,0.2-1,0.2
		c-0.4,0-0.7-0.1-1-0.2c-0.3-0.2-0.5-0.4-0.7-0.6c-0.2-0.3-0.3-0.5-0.3-0.8h4c0.4,0,0.5-0.2,0.5-0.5c0-0.5-0.1-0.9-0.3-1.3
		C128.2,33.3,127.8,32.9,127.4,32.7z M124.2,34.8c0-0.3,0.1-0.5,0.2-0.8c0.1-0.3,0.3-0.5,0.6-0.7s0.6-0.3,1-0.3s0.7,0.1,1,0.3
		c0.3,0.2,0.5,0.4,0.6,0.7s0.2,0.5,0.2,0.8H124.2z"/>
	<path class="st0" d="M132.9,32.5c-0.2-0.1-0.4-0.1-0.7-0.1c-0.6,0-1.1,0.2-1.6,0.7v-0.3c0-0.1,0-0.2-0.1-0.2
		c-0.1-0.1-0.1-0.1-0.2-0.1H130c0,0-0.1,0-0.1,0c0,0,0,0.1,0,0.1v5.2c0,0,0,0.1,0,0.1c0,0,0.1,0,0.1,0h0.6c0,0,0.1,0,0.1,0
		c0,0,0-0.1,0-0.1V34c0.2-0.3,0.4-0.5,0.7-0.7s0.5-0.2,0.7-0.2c0.2,0,0.3,0,0.5,0.1c0.1,0,0.3,0.1,0.5,0.2c0.1,0,0.1,0,0.2,0
		l0.3-0.5c0,0,0-0.1,0-0.1c0,0,0-0.1-0.1-0.1C133.3,32.6,133.1,32.6,132.9,32.5z"/>
	<path class="st0" d="M135,29.1c-0.1,0-0.3,0-0.3,0.1s-0.1,0.2-0.1,0.3c0,0.1,0,0.2,0.1,0.3s0.2,0.1,0.3,0.1c0.1,0,0.2,0,0.3-0.1
		c0.1-0.1,0.1-0.2,0.1-0.3c0-0.1,0-0.2-0.1-0.3C135.2,29.1,135.1,29.1,135,29.1z"/>
	<path class="st0" d="M135.3,32.4h-0.6c-0.1,0-0.1,0-0.1,0.1v5c0,0.1,0,0.2,0.1,0.2c0,0.1,0.1,0.1,0.2,0.1h0.4c0,0,0.1,0,0.1,0
		c0,0,0-0.1,0-0.1v-5.2C135.4,32.5,135.4,32.4,135.3,32.4z"/>
	<path class="st0" d="M142,34.4c0-0.4-0.1-0.8-0.3-1.1c-0.2-0.3-0.5-0.5-0.8-0.7c-0.3-0.2-0.7-0.2-1.1-0.2c-0.7,0-1.4,0.3-2,0.8
		v-0.5c0-0.1,0-0.2-0.1-0.2c-0.1-0.1-0.1-0.1-0.2-0.1H137c0,0-0.1,0-0.1,0c0,0,0,0.1,0,0.1v5.2c0,0,0,0.1,0,0.1s0.1,0,0.1,0h0.6
		c0,0,0.1,0,0.1,0s0-0.1,0-0.1V34c0.6-0.6,1.3-0.9,2-0.9c0.5,0,0.8,0.1,1.1,0.4c0.3,0.3,0.4,0.6,0.4,1v3c0,0.1,0,0.2,0.1,0.2
		c0.1,0.1,0.1,0.1,0.2,0.1h0.5c0.1,0,0.1,0,0.1-0.1v0c0-0.2,0-0.5,0-0.8V34.4z"/>
	<path class="st0" d="M148.5,38.6c-0.3-0.2-0.8-0.3-1.5-0.4l-2-0.2c-0.4,0-0.7-0.1-0.9-0.2c-0.2-0.1-0.3-0.3-0.3-0.4
		c0-0.1,0.1-0.2,0.2-0.3c0.1-0.1,0.2-0.1,0.4-0.1c0.1,0,0.2,0,0.3,0.1c0.4,0.2,0.9,0.4,1.4,0.4c0.4,0,0.8-0.1,1.2-0.3
		c0.4-0.2,0.6-0.5,0.9-0.8c0.2-0.4,0.3-0.8,0.3-1.2c0-0.4-0.1-0.7-0.2-1c-0.1-0.3-0.3-0.6-0.7-0.8c0,0,0.2,0,0.4,0
		c0.2,0,0.4,0,0.5-0.1l0-0.4c0-0.1,0-0.1-0.1-0.1c-0.1,0-0.3,0-0.5,0c-0.4,0-0.7,0-1.1-0.1c-0.3,0-0.6-0.1-0.8-0.1
		c-0.5,0-0.9,0.1-1.2,0.3c-0.4,0.2-0.7,0.5-0.9,0.9s-0.3,0.8-0.3,1.2c0,0.4,0.1,0.7,0.2,1c0.2,0.3,0.3,0.5,0.5,0.7
		c-0.1,0-0.2,0-0.3,0c-0.3,0-0.5,0.1-0.7,0.2c-0.2,0.2-0.3,0.4-0.3,0.6c0,0.1,0,0.2,0,0.3c0.1,0.2,0.3,0.5,0.5,0.6
		c0.3,0.2,0.6,0.3,0.9,0.3c-0.4,0.1-0.7,0.3-0.9,0.5s-0.3,0.5-0.3,0.9c0,0.6,0.2,1,0.7,1.3c0.5,0.3,1.1,0.5,1.9,0.5
		c0.6,0,1.1-0.1,1.6-0.3s0.9-0.4,1.1-0.7c0.3-0.3,0.4-0.7,0.4-1.2C149,39.1,148.9,38.8,148.5,38.6z M144.5,34
		c0.1-0.3,0.3-0.5,0.6-0.6c0.3-0.1,0.5-0.2,0.9-0.2c0.3,0,0.6,0.1,0.8,0.2c0.3,0.1,0.5,0.3,0.6,0.6c0.2,0.3,0.2,0.5,0.2,0.9
		c0,0.5-0.2,0.9-0.5,1.2c-0.3,0.3-0.7,0.4-1.2,0.4c-0.3,0-0.6-0.1-0.8-0.2c-0.3-0.1-0.5-0.3-0.6-0.6c-0.2-0.2-0.2-0.5-0.2-0.8
		C144.3,34.5,144.4,34.2,144.5,34z M147.5,40.6c-0.4,0.2-0.9,0.4-1.6,0.4c-0.5,0-1-0.1-1.3-0.3c-0.3-0.2-0.5-0.5-0.5-0.9
		c0-0.2,0.1-0.4,0.2-0.6c0.1-0.2,0.3-0.3,0.4-0.4c0.2-0.1,0.3-0.1,0.5-0.1c0.9,0.1,1.5,0.2,1.9,0.3c0.4,0.1,0.6,0.2,0.8,0.3
		c0.2,0.1,0.2,0.3,0.2,0.5C148.1,40.1,147.9,40.4,147.5,40.6z"/>
	<path class="st0" d="M11.4,28.1c-1-0.6-2.2-1.2-3.8-1.8c-1.1-0.5-2-0.9-2.5-1.3c-0.5-0.4-0.8-1-0.8-1.7c0-0.7,0.3-1.2,0.9-1.7
		c0.6-0.5,1.3-0.7,2.3-0.7c0.6,0,1.2,0.1,1.8,0.4s1.1,0.6,1.6,0.9c0.5,0.4,0.7,0.6,0.8,0.6c0.2,0.1,0.3,0.2,0.4,0.2
		c0.2,0,0.5-0.1,0.7-0.4l1.4-1.8c0.1-0.1,0.1-0.2,0.1-0.4c0-0.2-0.1-0.4-0.3-0.7c-0.6-0.6-1.4-1.2-2.6-1.8c-1.1-0.6-2.5-0.9-3.9-0.9
		c-1.6,0-2.9,0.3-3.9,0.9c-1.1,0.6-1.8,1.4-2.3,2.3c-0.5,0.9-0.8,1.9-0.8,2.9c0,1.1,0.3,2.1,0.8,2.9c0.6,0.8,1.3,1.5,2.3,2.1
		c1,0.6,2.2,1.2,3.7,1.8c0.3,0.1,0.4,0.2,0.6,0.2c0.7,0.3,1.3,0.5,1.7,0.7c0.4,0.2,0.8,0.5,1,0.8c0.3,0.3,0.4,0.8,0.4,1.3
		c0,0.8-0.3,1.4-1,1.8c-0.7,0.4-1.6,0.6-2.6,0.6c-0.9,0-1.7-0.2-2.4-0.6c-0.7-0.4-1.4-0.9-2.2-1.6c-0.1-0.1-0.3-0.1-0.4-0.1
		c-0.2,0-0.4,0.1-0.6,0.3l-1.6,1.8C0.1,35.5,0,35.6,0,35.7c0,0.2,0.1,0.3,0.3,0.5c0.8,0.8,1.8,1.5,2.9,2.2c1.1,0.7,2.5,1,4.1,1
		c1.4,0,2.7-0.3,3.8-0.8c1.1-0.6,2-1.3,2.7-2.3c0.7-0.9,1-2,1-3c0-1.2-0.3-2.2-1-3.1C13.2,29.4,12.4,28.7,11.4,28.1z"/>
	<path class="st0" d="M20.4,23.9h-2.6c-0.3,0-0.5,0.2-0.5,0.5v14.4c0,0.3,0.2,0.5,0.5,0.5h2.6c0.3,0,0.5-0.2,0.5-0.5V24.3
		C20.9,24.1,20.7,23.9,20.4,23.9z"/>
	<path class="st0" d="M19.1,15.2c-0.6,0-1.2,0.2-1.6,0.7c-0.5,0.5-0.7,1-0.7,1.6c0,0.7,0.2,1.2,0.7,1.7c0.5,0.5,1,0.7,1.6,0.7
		c0.6,0,1.2-0.2,1.6-0.7c0.5-0.5,0.7-1,0.7-1.6c0-0.6-0.2-1.2-0.7-1.6C20.3,15.4,19.8,15.2,19.1,15.2z"/>
	<path class="st0" d="M40.3,23.4c-1.7,0-3.1,0.6-4.1,1.8c-0.2,0.2-0.5,0.2-0.7,0c-1-1.2-2.2-1.8-3.8-1.8c-0.8,0-1.4,0.1-1.9,0.4
		c-0.5,0.3-1.1,0.7-1.7,1.5v-1c0-0.3-0.2-0.5-0.5-0.5h-2.6c-0.3,0-0.5,0.2-0.5,0.5v14.4c0,0.3,0.2,0.5,0.5,0.5h2.6
		c0.3,0,0.5-0.2,0.5-0.5v-7.5c0-1.6,0.2-2.8,0.7-3.5c0.5-0.7,1.2-1.1,2.2-1.1c1.6,0,2.4,1.4,2.4,4.1v8c0,0.3,0.2,0.5,0.5,0.5h2.6
		c0.3,0,0.5-0.2,0.5-0.5v-7.5c0-1.6,0.2-2.8,0.7-3.5c0.4-0.7,1.2-1.1,2.1-1.1c0.8,0,1.4,0.3,1.8,0.9c0.4,0.6,0.5,1.7,0.5,3.1v8.1
		c0,0.3,0.2,0.5,0.5,0.5H45c0.3,0,0.5-0.2,0.5-0.5v-9C45.5,25.5,43.8,23.4,40.3,23.4z"/>
	<path class="st0" d="M61.6,23.9H59c-0.3,0-0.5,0.2-0.5,0.5v8.3c0,2.5-1,3.8-3,3.8c-2,0-3-1.3-3-3.8v-8.3c0-0.3-0.2-0.5-0.5-0.5
		h-2.6c-0.3,0-0.5,0.2-0.5,0.5v8.4c0,1.4,0.1,2.5,0.4,3.2c0.3,0.8,0.8,1.5,1.6,2.2c1.2,1,2.7,1.6,4.6,1.6c1.8,0,3.4-0.5,4.6-1.6
		c0.7-0.6,1.2-1.4,1.5-2.2c0.3-0.9,0.5-2,0.5-3.2v-8.4C62.1,24.1,61.9,23.9,61.6,23.9z"/>
	<path class="st0" d="M68.7,16.1h-2.6c-0.3,0-0.5,0.2-0.5,0.5v22.2c0,0.3,0.2,0.5,0.5,0.5h2.6c0.3,0,0.5-0.2,0.5-0.5V16.5
		C69.2,16.3,69,16.1,68.7,16.1z"/>
	<rect x="79.1" y="0" class="st0" width="1" height="56"/>
</g>
</svg>
